HIERARCHY
ROOT Hips
{
	OFFSET 0.000000 83.214638 0.000000
	CHANNELS 6 Xposition Yposition Zposition Xrotation Yrotation Zrotation
	JOINT Pelvis
	{
		OFFSET 0.000000 0.000000 0.000000
		CHANNELS 3 Xrotation Yrotation Zrotation
		JOINT LeftUpLeg
		{
			OFFSET 8.479700 -4.795502 -0.379100
			CHANNELS 3 Xrotation Yrotation Zrotation
			JOINT LeftLeg
			{
				OFFSET 0.024144 -32.555107 0.112900
				CHANNELS 3 Xrotation Yrotation Zrotation
				JOINT LeftFoot
				{
					OFFSET -0.024144 -32.638630 -3.012600
					CHANNELS 3 Xrotation Yrotation Zrotation
					JOINT LeftToeBase
					{
						OFFSET 0.970200 -13.225400 11.864200
						CHANNELS 3 Xrotation Yrotation Zrotation
						End Site
						{
							OFFSET 0.000000 12.319262 0.000000
						}
					}
					JOINT LFootTongue
					{
						OFFSET 1.142400 -1.059800 6.665200
						CHANNELS 3 Xrotation Yrotation Zrotation
						End Site
						{
							OFFSET 0.000000 12.319262 0.000000
						}
					}
				}
				JOINT LeftPantLeg
				{
					OFFSET 0.918482 -16.533964 -2.284700
					CHANNELS 3 Xrotation Yrotation Zrotation
					End Site
					{
						OFFSET 0.350399 24.744368 0.000000
					}
				}
			}
		}
		JOINT RightUpLeg
		{
			OFFSET -8.479700 -4.795502 -0.379100
			CHANNELS 3 Xrotation Yrotation Zrotation
			JOINT RightLeg
			{
				OFFSET -0.023144 -32.555092 0.112900
				CHANNELS 3 Xrotation Yrotation Zrotation
				JOINT RightFoot
				{
					OFFSET 0.023144 -32.638641 -3.012700
					CHANNELS 3 Xrotation Yrotation Zrotation
					JOINT RightToeBase
					{
						OFFSET -0.970200 -13.225400 11.864200
						CHANNELS 3 Xrotation Yrotation Zrotation
						End Site
						{
							OFFSET 0.000000 12.319244 0.000000
						}
					}
					JOINT RFootTongue
					{
						OFFSET -1.142200 -1.059800 6.665200
						CHANNELS 3 Xrotation Yrotation Zrotation
						End Site
						{
							OFFSET 0.000000 12.319243 0.000000
						}
					}
				}
				JOINT RightPantLeg
				{
					OFFSET -0.919482 -16.533978 -2.284800
					CHANNELS 3 Xrotation Yrotation Zrotation
					End Site
					{
						OFFSET -0.350400 24.744419 0.000000
					}
				}
			}
		}
	}
	JOINT Spine
	{
		OFFSET 0.000000 7.722000 1.166200
		CHANNELS 3 Xrotation Yrotation Zrotation
		JOINT Spine1
		{
			OFFSET 0.000000 12.024101 0.248800
			CHANNELS 3 Xrotation Yrotation Zrotation
			JOINT Spine2
			{
				OFFSET 0.000000 11.502998 -0.491200
				CHANNELS 3 Xrotation Yrotation Zrotation
				JOINT Neck
				{
					OFFSET 0.000000 18.430702 -3.123100
					CHANNELS 3 Xrotation Yrotation Zrotation
					JOINT Head
					{
						OFFSET 0.000000 9.051102 1.034000
						CHANNELS 3 Xrotation Yrotation Zrotation
						JOINT HairB
						{
							OFFSET 0.208400 24.786102 24.822300
							CHANNELS 3 Xrotation Yrotation Zrotation
							End Site
							{
								OFFSET 0.000000 32.263779 0.000000
							}
						}
						JOINT HairA
						{
							OFFSET -7.081100 24.428299 23.196600
							CHANNELS 3 Xrotation Yrotation Zrotation
							End Site
							{
								OFFSET 0.000000 32.263779 0.000000
							}
						}
						JOINT Hat
						{
							OFFSET 16.728800 15.048294 -15.439601
							CHANNELS 3 Xrotation Yrotation Zrotation
							End Site
							{
								OFFSET 0.000000 32.263779 0.000000
							}
						}
					}
				}
				JOINT LeftShoulder
				{
					OFFSET 6.197800 13.665199 -4.064700
					CHANNELS 3 Xrotation Yrotation Zrotation
					JOINT LeftArm
					{
						OFFSET 7.778100 -0.187103 -1.709300
						CHANNELS 3 Xrotation Yrotation Zrotation
						JOINT LeftForeArm
						{
							OFFSET 22.049376 0.000000 0.000000
							CHANNELS 3 Xrotation Yrotation Zrotation
							JOINT LeftHand
							{
								OFFSET 23.009392 0.000000 0.000000
								CHANNELS 3 Xrotation Yrotation Zrotation
								JOINT LeftHandThumb1
								{
									OFFSET 3.507191 -2.063065 3.133727
									CHANNELS 3 Xrotation Yrotation Zrotation
									JOINT LeftHandThumb2
									{
										OFFSET 3.101337 -1.790558 1.790558
										CHANNELS 3 Xrotation Yrotation Zrotation
										JOINT LeftHandThumb3
										{
											OFFSET 3.058640 -1.765907 1.765906
											CHANNELS 3 Xrotation Yrotation Zrotation
											End Site
											{
												OFFSET -0.415260 3.926476 -0.049563
											}
										}
									}
								}
								JOINT LeftHandIndex1
								{
									OFFSET 11.334419 -0.901459 3.706815
									CHANNELS 3 Xrotation Yrotation Zrotation
									JOINT LeftHandIndex2
									{
										OFFSET 3.283112 0.000000 0.000000
										CHANNELS 3 Xrotation Yrotation Zrotation
										JOINT LeftHandIndex3
										{
											OFFSET 3.323853 0.000000 0.000000
											CHANNELS 3 Xrotation Yrotation Zrotation
											End Site
											{
												OFFSET -1.135597 3.097809 0.402452
											}
										}
									}
								}
								JOINT LeftHandMiddle1
								{
									OFFSET 11.335861 0.000000 0.000000
									CHANNELS 3 Xrotation Yrotation Zrotation
									JOINT LeftHandMiddle2
									{
										OFFSET 3.410492 0.000000 0.000000
										CHANNELS 3 Xrotation Yrotation Zrotation
										JOINT LeftHandMiddle3
										{
											OFFSET 3.312172 0.000000 0.000000
											CHANNELS 3 Xrotation Yrotation Zrotation
											End Site
											{
												OFFSET -1.150200 3.080154 0.400270
											}
										}
									}
								}
								JOINT LeftHandRing1
								{
									OFFSET 11.514786 -0.013176 -3.003090
									CHANNELS 3 Xrotation Yrotation Zrotation
									JOINT LeftHandRing2
									{
										OFFSET 3.053307 0.000000 0.000000
										CHANNELS 3 Xrotation Yrotation Zrotation
										JOINT LeftHandRing3
										{
											OFFSET 3.295807 0.000000 0.000000
											CHANNELS 3 Xrotation Yrotation Zrotation
											End Site
											{
												OFFSET -1.281006 3.013344 0.375733
											}
										}
									}
								}
								JOINT LeftHandPinky1
								{
									OFFSET 10.518692 -0.960396 -5.730441
									CHANNELS 3 Xrotation Yrotation Zrotation
									JOINT LeftHandPinky2
									{
										OFFSET 2.861649 0.000000 0.000000
										CHANNELS 3 Xrotation Yrotation Zrotation
										JOINT LeftHandPinky3
										{
											OFFSET 2.863380 0.000000 0.000000
											CHANNELS 3 Xrotation Yrotation Zrotation
											End Site
											{
												OFFSET -0.843597 2.711159 0.369971
											}
										}
									}
								}
							}
							JOINT LSleeve
							{
								OFFSET 6.676277 -0.344902 -1.011730
								CHANNELS 3 Xrotation Yrotation Zrotation
								End Site
								{
									OFFSET 0.000000 14.885353 0.000000
								}
							}
						}
					}
				}
				JOINT RightShoulder
				{
					OFFSET -6.197800 13.665199 -4.064700
					CHANNELS 3 Xrotation Yrotation Zrotation
					JOINT RightArm
					{
						OFFSET -7.778100 -0.187103 -1.709300
						CHANNELS 3 Xrotation Yrotation Zrotation
						JOINT RightForeArm
						{
							OFFSET -22.049376 0.000000 0.000000
							CHANNELS 3 Xrotation Yrotation Zrotation
							JOINT RightHand
							{
								OFFSET -23.009392 0.000000 0.000000
								CHANNELS 3 Xrotation Yrotation Zrotation
								JOINT RightHandThumb1
								{
									OFFSET -3.507191 -2.063065 3.133727
									CHANNELS 3 Xrotation Yrotation Zrotation
									JOINT RightHandThumb2
									{
										OFFSET -3.101337 -1.790558 1.790558
										CHANNELS 3 Xrotation Yrotation Zrotation
										JOINT RightHandThumb3
										{
											OFFSET -3.058640 -1.765907 1.765906
											CHANNELS 3 Xrotation Yrotation Zrotation
											End Site
											{
												OFFSET 0.415260 3.926476 -0.049563
											}
										}
									}
								}
								JOINT RightHandIndex1
								{
									OFFSET -11.334419 -0.901459 3.706815
									CHANNELS 3 Xrotation Yrotation Zrotation
									JOINT RightHandIndex2
									{
										OFFSET -3.283112 0.000000 0.000000
										CHANNELS 3 Xrotation Yrotation Zrotation
										JOINT RightHandIndex3
										{
											OFFSET -3.323853 0.000000 0.000000
											CHANNELS 3 Xrotation Yrotation Zrotation
											End Site
											{
												OFFSET 1.135597 3.097809 0.402452
											}
										}
									}
								}
								JOINT RightHandMiddle1
								{
									OFFSET -11.335861 0.000000 0.000000
									CHANNELS 3 Xrotation Yrotation Zrotation
									JOINT RightHandMiddle2
									{
										OFFSET -3.410492 0.000000 0.000000
										CHANNELS 3 Xrotation Yrotation Zrotation
										JOINT RightHandMiddle3
										{
											OFFSET -3.312172 0.000000 0.000000
											CHANNELS 3 Xrotation Yrotation Zrotation
											End Site
											{
												OFFSET 1.150200 3.080154 0.400270
											}
										}
									}
								}
								JOINT RightHandRing1
								{
									OFFSET -11.514786 -0.013176 -3.003090
									CHANNELS 3 Xrotation Yrotation Zrotation
									JOINT RightHandRing2
									{
										OFFSET -3.053307 0.000000 0.000000
										CHANNELS 3 Xrotation Yrotation Zrotation
										JOINT RightHandRing3
										{
											OFFSET -3.295807 0.000000 0.000000
											CHANNELS 3 Xrotation Yrotation Zrotation
											End Site
											{
												OFFSET 1.281006 3.013344 0.375733
											}
										}
									}
								}
								JOINT RightHandPinky1
								{
									OFFSET -10.518692 -0.960396 -5.730441
									CHANNELS 3 Xrotation Yrotation Zrotation
									JOINT RightHandPinky2
									{
										OFFSET -2.861649 0.000000 0.000000
										CHANNELS 3 Xrotation Yrotation Zrotation
										JOINT RightHandPinky3
										{
											OFFSET -2.863380 0.000000 0.000000
											CHANNELS 3 Xrotation Yrotation Zrotation
											End Site
											{
												OFFSET 0.843597 2.711159 0.369971
											}
										}
									}
								}
							}
							JOINT RSleeve
							{
								OFFSET -6.676277 -0.344902 -1.011730
								CHANNELS 3 Xrotation Yrotation Zrotation
								End Site
								{
									OFFSET 0.000000 14.885353 0.000000
								}
							}
						}
					}
				}
				JOINT Backpack
				{
					OFFSET 0.000000 -2.471497 36.677502
					CHANNELS 3 Xrotation Yrotation Zrotation
					End Site
					{
						OFFSET 0.000000 20.427315 0.000000
					}
				}
				JOINT Hood
				{
					OFFSET 0.000000 18.754097 -10.431000
					CHANNELS 3 Xrotation Yrotation Zrotation
					JOINT Hood1
					{
						OFFSET 0.000000 -5.011002 -7.685901
						CHANNELS 3 Xrotation Yrotation Zrotation
						End Site
						{
							OFFSET 0.000000 9.175140 0.000000
						}
					}
				}
				JOINT LHoodieString
				{
					OFFSET 5.250500 16.397697 3.089900
					CHANNELS 3 Xrotation Yrotation Zrotation
					JOINT LHoodieString1
					{
						OFFSET 0.257700 -6.364304 3.694600
						CHANNELS 3 Xrotation Yrotation Zrotation
						JOINT LHoodieString2
						{
							OFFSET 0.000000 -9.643799 2.679100
							CHANNELS 3 Xrotation Yrotation Zrotation
							End Site
							{
								OFFSET 0.000000 10.009018 0.000000
							}
						}
					}
				}
				JOINT RHoodieString
				{
					OFFSET -5.250500 16.397697 3.089900
					CHANNELS 3 Xrotation Yrotation Zrotation
					JOINT RHoodieString1
					{
						OFFSET -0.257700 -6.364304 3.694600
						CHANNELS 3 Xrotation Yrotation Zrotation
						JOINT RHoodieString2
						{
							OFFSET 0.000000 -9.643799 2.679100
							CHANNELS 3 Xrotation Yrotation Zrotation
							End Site
							{
								OFFSET 0.000000 10.009018 0.000000
							}
						}
					}
				}
			}
			JOINT LBackpack_Strap
			{
				OFFSET 15.223200 -7.719803 -6.610900
				CHANNELS 3 Xrotation Yrotation Zrotation
				End Site
				{
					OFFSET 0.000000 16.040596 0.000000
				}
			}
			JOINT RBackpack_Strap
			{
				OFFSET -15.223000 -7.719803 -6.610900
				CHANNELS 3 Xrotation Yrotation Zrotation
				End Site
				{
					OFFSET 0.000000 16.040596 0.000000
				}
			}
		}
	}
	JOINT BoyFacialAnim_Joint
	{
		OFFSET 1.000000 -82.208099 -1.550900
		CHANNELS 3 Xrotation Yrotation Zrotation
		End Site
		{
			OFFSET 0.000000 30.012791 0.000000
		}
	}
}
MOTION
Frames: 4
Frame Time: 0.016667
0.118895 9.570503 -3.486702 -86.966695 -3.536505 -0.022074 0.000000 -0.000000 -0.000000 -24.843756 15.407899 -6.726716 25.068625 -6.830707 -9.544736 0.588675 9.446970 7.426820 -0.000000 -0.000000 -0.000000 -0.000000 -0.000000 -0.000000 -0.000000 0.000000 0.000001 -6.228086 -10.283608 -1.243758 1.780419 -9.775853 4.862711 16.259173 -3.877102 27.309991 0.000001 -0.000000 0.000001 0.000001 -0.000000 0.000001 0.000000 0.000000 -0.000000 0.078014 1.994083 -2.409814 -2.894329 0.722157 -0.032029 -2.892138 0.750137 -0.008814 4.260105 0.456928 0.133952 4.823567 3.550530 10.429255 0.000000 0.000000 0.000000 0.000000 0.000000 0.000000 0.000000 0.000000 0.000000 1.575207 -15.462657 -0.386114 21.370847 -1.052519 -73.139141 0.000030 -137.558453 0.000042 -17.216077 17.260909 -40.864892 -7.747749 -16.408833 12.046777 7.558194 31.509541 -3.040782 0.000000 0.000001 -0.000002 0.259314 3.223718 10.217935 0.789877 2.939701 -30.073685 -0.000000 0.000000 -0.000000 -0.267158 2.447520 18.123142 0.825492 3.000284 -30.761082 -0.000000 0.000001 0.000002 -0.192983 1.876665 21.842779 0.923690 3.159208 -32.588728 -0.000001 0.000000 -0.000000 -3.484225 5.349117 23.881623 0.640529 2.665505 -27.019988 0.000000 0.000000 -0.000000 -0.000002 0.000002 0.000001 0.537274 6.692242 0.071573 17.297889 6.543546 66.743693 0.000000 132.968046 -0.000001 -16.839264 -11.628792 48.900709 -19.372336 9.812735 -17.628158 16.805785 -33.149111 6.482063 -0.000001 -0.000002 -0.000000 -0.578710 -1.290239 19.415301 -0.000001 0.000002 -0.000001 -0.000001 -0.000001 0.000002 0.900180 -7.884231 9.062701 0.294486 -1.631369 20.463686 0.000001 -0.000000 -0.000000 0.740094 -10.091161 4.911410 1.354377 -3.285245 44.799986 0.000000 -0.000001 0.000002 0.507056 -5.672358 8.465996 1.111094 -3.020982 40.379050 0.000001 -0.000001 -0.000002 -0.000001 -0.000002 -0.000001 -0.000000 0.000000 -0.000000 -0.000000 0.000000 -0.000000 -0.000000 0.000000 -0.000000 -0.000000 0.000000 -0.000000 -0.000000 0.000000 -0.000000 -0.000000 0.000000 -0.000000 -0.000000 0.000000 -0.000000 -0.000000 0.000000 -0.000000 -0.000000 0.000000 -0.000000 -0.000000 0.000000 -0.000000 -0.000000 0.000000 -0.000000 0.000000 -0.000000 -0.000000 
0.118315 9.571899 -3.482468 -86.972658 -3.537637 -0.024634 -0.000000 -0.000000 -0.000000 -24.853136 15.408254 -6.718744 25.098985 -6.830709 -9.548160 0.574089 9.425007 7.430482 -0.000000 -0.000000 0.000000 -0.000000 -0.000000 0.000001 -0.000000 0.000000 0.000001 -6.219042 -10.283325 -1.240942 1.782338 -9.778524 4.862720 16.217529 -3.872727 27.326139 -0.000000 -0.000000 0.000001 -0.000000 -0.000000 0.000001 -0.000000 0.000002 0.000000 0.082317 1.984359 -2.400270 -2.899775 0.719093 -0.031225 -2.897565 0.747077 -0.008094 4.272381 0.440566 0.143374 4.853045 3.381548 10.433354 0.000000 -0.000000 0.000000 0.000000 -0.000000 0.000000 0.000000 -0.000000 0.000000 1.572098 -15.451421 -0.406929 21.322445 -0.990315 -73.108391 0.000004 -137.648898 -0.000008 -16.964906 17.158767 -40.725061 -7.677276 -16.481620 12.448405 7.558194 31.509541 -3.040789 0.000000 -0.000000 0.000001 0.216533 3.322620 9.268474 0.755087 2.878858 -29.388207 -0.000001 -0.000001 -0.000000 -0.267955 2.540367 17.341943 0.825495 3.000288 -30.761096 -0.000001 0.000000 0.000000 -0.202639 1.974539 21.008602 0.883413 3.095400 -31.850514 -0.000000 0.000000 -0.000000 -3.543191 5.418539 23.634333 0.608909 2.602638 -26.331947 0.000000 0.000000 -0.000000 -0.000000 0.000003 0.000004 0.542307 6.731886 0.071285 17.280946 6.510335 66.772804 -0.000002 132.980368 -0.000006 -16.827513 -11.646443 48.903007 -19.372336 9.812734 -17.628158 16.805783 -33.149111 6.482061 -0.000001 0.000001 0.000001 -0.578706 -1.290238 19.415296 -0.000002 0.000002 0.000000 -0.000001 0.000000 0.000002 0.900186 -7.884231 9.062701 0.294486 -1.631370 20.463686 0.000001 0.000000 -0.000000 0.740097 -10.091161 4.911414 1.354377 -3.285242 44.799986 0.000001 -0.000002 0.000004 0.507059 -5.672357 8.465997 1.111095 -3.020982 40.379044 0.000002 0.000000 0.000002 -0.000000 0.000001 0.000001 -0.000000 0.000000 -0.000000 -0.000000 0.000000 -0.000000 -0.000000 0.000000 -0.000000 -0.000000 0.000000 -0.000000 -0.000000 0.000000 -0.000000 0.000000 -0.000000 -0.000000 -0.000000 0.000000 -0.000000 -0.000000 0.000000 -0.000000 0.000000 -0.000000 -0.000000 0.000000 0.000000 0.000000 0.000000 0.000000 0.000000 -0.000000 -0.000000 -0.000000 
0.118264 9.573341 -3.478111 -86.978682 -3.537286 -0.027463 0.000000 0.000000 -0.000000 -24.862070 15.408637 -6.711264 25.129314 -6.830312 -9.551702 0.559584 9.401954 7.434743 -0.000000 0.000000 0.000000 -0.000000 0.000000 0.000000 0.000000 0.000000 -0.000000 -6.210034 -10.283433 -1.238753 1.785084 -9.782155 4.863203 16.174685 -3.868451 27.343540 0.000001 0.000002 -0.000000 0.000001 0.000002 -0.000000 0.000000 0.000001 0.000000 0.089135 1.974875 -2.389356 -2.905661 0.716116 -0.029207 -2.903448 0.744093 -0.006157 4.284334 0.424950 0.153656 4.886322 3.221609 10.436328 -0.000000 0.000000 -0.000000 -0.000000 0.000000 -0.000000 -0.000000 0.000000 -0.000000 1.568777 -15.437780 -0.427668 21.271668 -0.938649 -73.080005 -0.000018 -137.717746 -0.000020 -16.836746 17.157150 -40.835710 -7.606058 -16.554691 12.852140 7.558193 31.509541 -3.040787 -0.000000 0.000000 0.000001 0.175409 3.423360 8.317331 0.720862 2.817310 -28.699482 -0.000000 -0.000001 -0.000002 -0.267369 2.633413 16.559271 0.825500 3.000289 -30.761092 -0.000001 -0.000000 0.000000 -0.210755 2.072768 20.172863 0.843783 3.030763 -31.108800 -0.000001 0.000000 -0.000000 -3.600509 5.485860 23.389138 0.577901 2.539082 -25.640616 0.000000 0.000000 -0.000004 0.000001 0.000002 0.000000 0.546428 6.771664 0.070983 17.268882 6.484037 66.804243 0.000004 132.996023 0.000005 -16.820435 -11.675027 48.886085 -19.372336 9.812734 -17.628158 16.805786 -33.149118 6.482060 0.000001 0.000000 -0.000001 -0.578708 -1.290239 19.415301 -0.000001 0.000002 -0.000002 -0.000002 -0.000001 -0.000000 0.900189 -7.884231 9.062704 0.294487 -1.631370 20.463680 -0.000000 -0.000002 0.000001 0.740097 -10.091162 4.911412 1.354381 -3.285243 44.799989 -0.000000 -0.000002 0.000002 0.507056 -5.672357 8.465993 1.111098 -3.020984 40.379040 0.000002 -0.000002 -0.000002 0.000002 -0.000001 -0.000001 -0.000000 0.000000 -0.000000 -0.000000 0.000000 -0.000000 -0.000000 0.000000 -0.000000 -0.000000 0.000000 -0.000000 -0.000000 0.000000 -0.000000 0.000000 -0.000000 -0.000000 -0.000000 0.000000 -0.000000 -0.000000 0.000000 -0.000000 0.000000 -0.000000 -0.000000 0.000000 0.000000 0.000000 0.000000 0.000000 0.000000 0.000000 0.000000 -0.000000 
0.118682 9.574684 -3.473778 -86.984426 -3.535379 -0.030423 -0.000000 -0.000000 -0.000000 -24.870447 15.409026 -6.704455 25.158348 -6.829530 -9.555285 0.546086 9.377918 7.439599 -0.000000 -0.000001 -0.000001 -0.000000 -0.000001 -0.000000 -0.000000 0.000000 -0.000000 -6.201829 -10.283811 -1.237214 1.788913 -9.786075 4.864041 16.130544 -3.864884 27.362248 -0.000000 0.000000 -0.000000 -0.000000 0.000000 -0.000000 -0.000000 0.000002 0.000000 0.097507 1.966627 -2.378785 -2.910619 0.713544 -0.026432 -2.908357 0.741506 -0.003458 4.294644 0.409459 0.165082 4.917913 3.065241 10.438751 0.000000 0.000000 -0.000001 0.000000 0.000000 -0.000001 0.000000 0.000000 -0.000001 1.565689 -15.422391 -0.445049 21.221008 -0.901435 -73.058299 0.000015 -137.753618 0.000020 -16.852075 17.263877 -41.211357 -7.535803 -16.626291 13.248381 7.558188 31.509538 -3.040780 0.000000 -0.000000 -0.000001 0.136836 3.523652 7.385390 0.688009 2.756520 -28.023759 0.000000 -0.000000 -0.000002 -0.265452 2.724609 15.792275 0.825493 3.000283 -30.761075 -0.000001 -0.000000 -0.000002 -0.217207 2.169163 19.353920 0.805713 2.966848 -30.381119 -0.000000 0.000001 0.000001 -3.655686 5.551068 23.150122 0.548222 2.476366 -24.962381 -0.000001 0.000001 -0.000005 -0.000001 -0.000001 -0.000001 0.549133 6.804088 0.070728 17.259755 6.469271 66.833101 0.000019 133.013235 -0.000023 -16.816580 -11.710433 48.858843 -19.372336 9.812734 -17.628158 16.805781 -33.149111 6.482059 -0.000001 0.000001 0.000001 -0.578709 -1.290239 19.415299 -0.000004 0.000003 -0.000003 -0.000001 0.000000 0.000002 0.900185 -7.884231 9.062700 0.294487 -1.631371 20.463680 -0.000002 0.000000 -0.000000 0.740095 -10.091161 4.911411 1.354380 -3.285244 44.799989 -0.000002 0.000001 0.000002 0.507058 -5.672357 8.465996 1.111094 -3.020982 40.379044 -0.000001 -0.000001 -0.000003 -0.000000 -0.000001 0.000002 -0.000000 -0.000000 0.000000 -0.000000 -0.000000 0.000000 -0.000000 -0.000000 0.000000 -0.000000 -0.000000 0.000000 -0.000000 -0.000000 0.000000 0.000000 -0.000000 0.000000 -0.000000 -0.000000 0.000000 -0.000000 -0.000000 0.000000 0.000000 -0.000000 0.000000 0.000000 0.000000 0.000000 0.000000 0.000000 0.000000 -0.000000 -0.000000 -0.000000 
